<?xml version="1.0" encoding="utf-8"?>
<!-- Generator: Adobe Illustrator 21.1.0, SVG Export Plug-In . SVG Version: 6.00 Build 0)  -->
<svg version="1.1" id="Kangaroo" xmlns="http://www.w3.org/2000/svg" xmlns:xlink="http://www.w3.org/1999/xlink" x="0px" y="0px"
	 viewBox="0 0 360 360" style="enable-background:new 0 0 360 360;" xml:space="preserve">
<style type="text/css">
	.st0{clip-path:url(#SVGID_2_);fill:#F15A29;}
	.st1{clip-path:url(#SVGID_2_);fill:#FFFFFF;}
</style>
<g>
	<defs>
		<circle id="SVGID_1_" cx="180" cy="180" r="180"/>
	</defs>
	<clipPath id="SVGID_2_">
		<use xlink:href="#SVGID_1_"  style="overflow:visible;"/>
	</clipPath>
	<rect id="Background" class="st0" width="360" height="360"/>
	<path class="st1" d="M216.9,40.1c1,5.6-4,30.3-8.6,38.9c-4.6,8.6-14.4,21.8-20.2,28.8c-2.2,2.7-7.5,12.7-8,15.6
		c2.3-2,8.4-12.3,10.3-13.3c0.8-0.5,2,1.3,2.7,1.8c0.9,0.7,41.5,33.9,48.5,40.5c7.1,6.6,21.7,30.3,29.8,40.5
		c8.1,10.1,29.8,30.8,33.4,38.9c3.5,8.1-1.5,19.7-3.5,24.3c-2,4.6-6.6,16.6-12.6,19.7c-6.1,3-19.7,3.5-35.9,0.5
		c-16.2-3-31.4-12.6-38.9-14.7c-7.6-2-22.8-7.1-26.8-5.1c-4,2-2,21.2,3,32.4c5.1,11.1,22.2,23.3,26.9,31.4
		c4.7,8.1,3.4,21.7,2.9,30.8c-0.5,9.1-2,39.4-6.1,50.1L0,390c14.4-34.7,70.7-101.1,70.7-101.1s9.6-11.6,13.2-25.8
		c3.5-14.2,5-47.1,11.1-68.8c6.6-23.3,25-41.1,27.8-47c6.6-14,0.6-22.7,6.6-32.8c8.4-14,20.2-17.7,24.2-21.8c4-4,8.6-14.2,14.2-19.2
		c3.3-3,17.2-19.8,26.7-30.1c-1.7,4.1-7.5,13.5-9.4,17.4c-3.3,6.7-7.3,27.6-7.3,27.6s-2.9,15.6-4.6,21s-11.5,16.2-11.5,16.2
		c0.4-0.2,9.4-5.5,13.8-15.2c1.9-4.3,3.9-10.8,4.9-17.6c1.3-8.2,4.4-20.8,8.5-31.1c3.1-7.6,12.2-24.5,16.6-27.5
		C214.7,27.8,215.9,34.5,216.9,40.1z M226.8,170.7c-7.9-0.1-28.1,2.2-28.7,3.9c-0.6,1.7,23.4,10.2,31.5,5.6
		C231.2,179,232.7,170.5,226.8,170.7z M286.2,237.9c-0.2-4.7,2.2-13.3,3.1-13.6l0,0c-5.7,2.1-7.5,12.6-6.7,16.3l0.1,0.4
		c0.7,3.3,4.7,9.5,11.2,9.5C287.5,245.3,286.4,242.6,286.2,237.9z M154.9,84.5c3.7-6.5,9.9-13.2,15-17.1C160.9,56.6,146,40,140,32.7
		c-8.6-10.4-26.8-12.3-30.8-8.3s2.5,45.5,6.6,55c2.5,6,11.7,17.5,17.6,24.7C138.1,99,149,95,154.9,84.5z"/>
	<use xlink:href="#SVGID_1_"  style="overflow:visible;fill:none;stroke:#FFFFFF;stroke-miterlimit:10;"/>
</g>
</svg>
